# xmcd CD database file
#
# Track frame offsets:
#	150
#	16706
#	30874
#	44678
#	58608
#	73041
#	87697
#	104145
#	119309
#	135952
#	152982
#	169260
#	187286
#	203697
#	221800
#	238848
#	255389
#	270840
#	288941
#	308109
#	323433
#	340096
#
# Disc length: 4750 seconds
#
# Revision: 5
# Processed by: cddbd v1.5.1PL0 Copyright (c) Steve Scherf et al.
# Submitted via: CDex 1.51
#
DISCID=3e128c16
DTITLE=Alabama - For The Record -- Disc 1
DYEAR=1998
DGENRE=Country
TTITLE0=Five O'Clock 500
TTITLE1=Keepin' Up
TTITLE2=How Do You Fall In Love
TTITLE3=Tennessee River
TTITLE4=Why Lady Why
TTITLE5=Old Flame
TTITLE6=Feels So Right
TTITLE7=Love In The First Degree
TTITLE8=Mountain Music
TTITLE9=Take Me Down
TTITLE10=Close Enough To Perfect
TTITLE11=Dixieland Delight
TTITLE12=The Closer You Get
TTITLE13=Lady Down On Love
TTITLE14=Roll On (Eighteen Wheeler)
TTITLE15=When We Make Love
TTITLE16=If You're Gonna Play In Texas (You Gotta Have a Fiddle In The Band)
TTITLE17=(There's A) Fire In The Night
TTITLE18=There's No Way
TTITLE19=Forty Hour Week (For A Livin')
TTITLE20=Can't Keep A Good Man Down
TTITLE21=She And I
EXTD=Manufactured and distributed by\nBMG Distribution, a division of\nBMG Entertainment\n1540 Broadway\nNew York, NY 10036-4098\n\nSome lyrics added byJacob Steenhagen\n<journeymanmereel@netscape.net>\nhttp://jacob.home.ml.org\nObtained from http://www.
EXTD=lyrics.ch\nand http://www.alabamafans.com\nNOTE: I couldn't find all the lyrics... if you\nhave some to add, please letme know...\nCurrently need:\nFive O'Clock 500\nKeepin' Up\nHow Do You FallIn Love\n(There's A) Fire In The Night\nCan't Keep A Goo
EXTD=d Man Down\nShe And I YEAR: 1998
EXTT0=
EXTT1=
EXTT2=
EXTT3=
EXTT4=
EXTT5=
EXTT6=
EXTT7=
EXTT8=
EXTT9=
EXTT10=
EXTT11=
EXTT12=
EXTT13=
EXTT14=
EXTT15=
EXTT16=
EXTT17=
EXTT18=
EXTT19=
EXTT20=
EXTT21=
PLAYORDER=
